<svg width="800" height="800" viewBox="0 0 512 512" xml:space="preserve" xmlns="http://www.w3.org/2000/svg"><path d="M408 72H136c-18 0-32 14-32 32v104c-22 0-40 18-40 40v153c0 10 6 19 15 23l9 1c6 0 12-2 17-7l34-34h141c22 0 40-18 40-40v-48h40l53 53c10 10 27 3 27-12V104c0-18-14-32-32-32zM304 344c0 13-11 24-24 24H133l-39 39c-4 4-8 2-9 2-1-1-5-3-5-8V248c0-13 11-24 24-24h176c13 0 24 10 24 24v96zm14-151-19 20c-6-3-11-5-19-5h-39l-15-15c-13-13-13-34 0-47s33-13 46 0c13-13 34-13 46 0 13 13 13 34 0 47zm-62 143c0 4-4 8-8 8H136a8 8 0 1 1 0-16h112c4 0 8 4 8 8zm0-80c0 4-4 8-8 8H136a8 8 0 1 1 0-16h112c4 0 8 4 8 8zm-128 40c0-4 4-8 8-8h88a8 8 0 1 1 0 16h-88c-4 0-8-4-8-8z"/></svg>
